<svg xmlns="http://www.w3.org/2000/svg" xmlns:xlink="http://www.w3.org/1999/xlink" contentStyleType="text/css" data-diagram-type="DESCRIPTION" height="885px" preserveAspectRatio="none" style="width:1219px;height:885px;background:#FFFFFF;" version="1.1" viewBox="0 0 1219 885" width="1219px" zoomAndPan="magnify"><defs/><g><!--cluster Syst?me WikiBouquin--><g class="cluster" data-entity="Syst&#232;me WikiBouquin" data-source-line="14" data-uid="ent0007" id="cluster_Syst&#232;me WikiBouquin"><rect fill="none" height="755" rx="2.5" ry="2.5" style="stroke:#181818;stroke-width:1;" width="732" x="481" y="124.21"/><text fill="#000000" font-family="sans-serif" font-size="14" font-weight="bold" lengthAdjust="spacing" textLength="172.0469" x="760.9766" y="139.2051">Syst&#232;me WikiBouquin</text></g><!--cluster Ma Collection--><g class="cluster" data-entity="Ma Collection" data-source-line="25" data-uid="ent0017" id="cluster_Ma Collection"><rect fill="none" height="318" rx="2.5" ry="2.5" style="stroke:#181818;stroke-width:1;" width="246" x="943" y="448.21"/><text fill="#000000" font-family="sans-serif" font-size="14" font-weight="bold" lengthAdjust="spacing" textLength="106.6133" x="1012.6934" y="463.2051">Ma Collection</text></g><!--cluster Backoffice--><g class="cluster" data-entity="Backoffice" data-source-line="32" data-uid="ent0023" id="cluster_Backoffice"><rect fill="none" height="198" rx="2.5" ry="2.5" style="stroke:#181818;stroke-width:1;" width="341" x="505" y="657.21"/><text fill="#000000" font-family="sans-serif" font-size="14" font-weight="bold" lengthAdjust="spacing" textLength="82.1201" x="634.4399" y="672.2051">Backoffice</text></g><!--entity UC_Inscrire--><g class="entity" data-entity="UC_Inscrire" data-source-line="16" data-uid="ent0008" id="entity_UC_Inscrire"><ellipse cx="675.3612" cy="407.2336" fill="#F1F1F1" rx="54.8612" ry="14.5236" style="stroke:#181818;stroke-width:0.5;"/><text fill="#000000" font-family="sans-serif" font-size="14" lengthAdjust="spacing" textLength="73.3428" x="638.6898" y="411.8821">Inscription</text></g><!--entity UC_SeConnecter--><g class="entity" data-entity="UC_SeConnecter" data-source-line="17" data-uid="ent0009" id="entity_UC_SeConnecter"><ellipse cx="1065.9965" cy="256.0093" fill="#F1F1F1" rx="64.4965" ry="15.2993" style="stroke:#181818;stroke-width:0.5;"/><text fill="#000000" font-family="sans-serif" font-size="14" lengthAdjust="spacing" textLength="92.1279" x="1019.9325" y="260.6577">Se connecter</text></g><!--entity UC_MDP_Oublie--><g class="entity" data-entity="UC_MDP_Oublie" data-source-line="18" data-uid="ent0010" id="entity_UC_MDP_Oublie"><ellipse cx="675.6529" cy="338.4406" fill="#F1F1F1" rx="84.1529" ry="19.2306" style="stroke:#181818;stroke-width:0.5;"/><text fill="#000000" font-family="sans-serif" font-size="14" lengthAdjust="spacing" textLength="140.3691" x="605.4684" y="343.089">Mot de passe oublie</text></g><!--entity UC_Auth--><g class="entity" data-entity="UC_Auth" data-source-line="19" data-uid="ent0011" id="entity_UC_Auth"><ellipse cx="675.5869" cy="624.0274" fill="#F1F1F1" rx="72.0869" ry="16.8174" style="stroke:#181818;stroke-width:0.5;"/><text fill="#000000" font-family="sans-serif" font-size="14" lengthAdjust="spacing" textLength="111.5898" x="619.792" y="628.6758">Authentification</text></g><!--entity UC_AuthAdmin--><g class="entity" data-entity="UC_AuthAdmin" data-source-line="20" data-uid="ent0012" id="entity_UC_AuthAdmin"><ellipse cx="675.6802" cy="478.246" fill="#F1F1F1" rx="93.1802" ry="21.036" style="stroke:#181818;stroke-width:0.5;"/><text fill="#000000" font-family="sans-serif" font-size="14" lengthAdjust="spacing" textLength="160.9043" x="595.2281" y="482.8945">Authentification Admin</text></g><!--entity UC_SeDeconnecter--><g class="entity" data-entity="UC_SeDeconnecter" data-source-line="21" data-uid="ent0013" id="entity_UC_SeDeconnecter"><ellipse cx="1065.7971" cy="415.3694" fill="#F1F1F1" rx="71.2971" ry="16.6594" style="stroke:#181818;stroke-width:0.5;"/><text fill="#000000" font-family="sans-serif" font-size="14" lengthAdjust="spacing" textLength="109.6279" x="1010.9832" y="420.0179">Se deconnecter</text></g><!--entity UC_Rechercher--><g class="entity" data-entity="UC_Rechercher" data-source-line="22" data-uid="ent0014" id="entity_UC_Rechercher"><ellipse cx="675.3294" cy="553.1759" fill="#F1F1F1" rx="82.8294" ry="18.9659" style="stroke:#181818;stroke-width:0.5;"/><text fill="#000000" font-family="sans-serif" font-size="14" lengthAdjust="spacing" textLength="137.2998" x="606.6795" y="557.8243">Rechercher un livre</text></g><!--entity UC_VoirDetails--><g class="entity" data-entity="UC_VoirDetails" data-source-line="23" data-uid="ent0015" id="entity_UC_VoirDetails"><ellipse cx="675.2791" cy="179.1658" fill="#F1F1F1" rx="87.7791" ry="19.9558" style="stroke:#181818;stroke-width:0.5;"/><text fill="#000000" font-family="sans-serif" font-size="14" lengthAdjust="spacing" textLength="148.6953" x="600.9315" y="183.8143">Voir details d'un livre</text></g><!--entity UC_ConsulterPublique--><g class="entity" data-entity="UC_ConsulterPublique" data-source-line="24" data-uid="ent0016" id="entity_UC_ConsulterPublique"><ellipse cx="675.335" cy="259.177" fill="#F1F1F1" rx="112.835" ry="24.967" style="stroke:#181818;stroke-width:0.5;"/><text fill="#000000" font-family="sans-serif" font-size="14" lengthAdjust="spacing" textLength="203.998" x="573.336" y="263.8254">Consulter collection publique</text></g><!--entity UC_ChangerMDP--><g class="entity" data-entity="UC_ChangerMDP" data-source-line="31" data-uid="ent0022" id="entity_UC_ChangerMDP"><ellipse cx="1065.7517" cy="809.2603" fill="#F1F1F1" rx="108.2517" ry="24.0503" style="stroke:#181818;stroke-width:0.5;"/><text fill="#000000" font-family="sans-serif" font-size="14" lengthAdjust="spacing" textLength="194.0928" x="968.7053" y="813.9088">Changer mon mot de passe</text></g><!--entity UC_ConsulterMoi--><g class="entity" data-entity="UC_ConsulterMoi" data-source-line="26" data-uid="ent0018" id="entity_UC_ConsulterMoi"><ellipse cx="1066.1984" cy="728.1497" fill="#F1F1F1" rx="95.1984" ry="21.4397" style="stroke:#181818;stroke-width:0.5;"/><text fill="#000000" font-family="sans-serif" font-size="14" lengthAdjust="spacing" textLength="165.416" x="983.4904" y="732.7981">Consulter ma collection</text></g><!--entity UC_Ajouter--><g class="entity" data-entity="UC_Ajouter" data-source-line="27" data-uid="ent0019" id="entity_UC_Ajouter"><ellipse cx="1066.0832" cy="655.2266" fill="#F1F1F1" rx="70.5832" ry="16.5166" style="stroke:#181818;stroke-width:0.5;"/><text fill="#000000" font-family="sans-serif" font-size="14" lengthAdjust="spacing" textLength="107.8438" x="1012.1614" y="659.8751">Ajouter un livre</text></g><!--entity UC_Supprimer--><g class="entity" data-entity="UC_Supprimer" data-source-line="28" data-uid="ent0020" id="entity_UC_Supprimer"><ellipse cx="1065.8258" cy="585.0752" fill="#F1F1F1" rx="79.8258" ry="18.3652" style="stroke:#181818;stroke-width:0.5;"/><text fill="#000000" font-family="sans-serif" font-size="14" lengthAdjust="spacing" textLength="130.2656" x="1000.693" y="589.7236">Supprimer un livre</text></g><!--entity UC_Visibilite--><g class="entity" data-entity="UC_Visibilite" data-source-line="29" data-uid="ent0021" id="entity_UC_Visibilite"><ellipse cx="1066.1214" cy="507.0343" fill="#F1F1F1" rx="107.1214" ry="23.8243" style="stroke:#181818;stroke-width:0.5;"/><text fill="#000000" font-family="sans-serif" font-size="14" lengthAdjust="spacing" textLength="191.6387" x="970.3021" y="511.6827">Changer visibilite d'un livre</text></g><!--entity UC_ReinitMDP--><g class="entity" data-entity="UC_ReinitMDP" data-source-line="33" data-uid="ent0024" id="entity_UC_ReinitMDP"><ellipse cx="675.3956" cy="725.9891" fill="#F1F1F1" rx="154.3956" ry="33.2791" style="stroke:#181818;stroke-width:0.5;"/><text fill="#000000" font-family="sans-serif" font-size="14" lengthAdjust="spacing" textLength="291.6211" x="529.5851" y="730.6376">Reinitialiser mot de passe d'un utilisateur</text></g><!--entity UC_ModifProfil--><g class="entity" data-entity="UC_ModifProfil" data-source-line="34" data-uid="ent0025" id="entity_UC_ModifProfil"><ellipse cx="675.69" cy="817.248" fill="#F1F1F1" rx="98.19" ry="22.038" style="stroke:#181818;stroke-width:0.5;"/><text fill="#000000" font-family="sans-serif" font-size="14" lengthAdjust="spacing" textLength="172.0605" x="589.6597" y="821.8964">Modifier profil utilisateur</text></g><!--entity Visiteur--><g class="entity" data-entity="Visiteur" data-source-line="4" data-uid="ent0002" id="entity_Visiteur"><ellipse cx="401.6909" cy="329.71" fill="#F1F1F1" rx="8" ry="8" style="stroke:#181818;stroke-width:0.5;"/><path d="M401.6909,337.71 L401.6909,364.71 M388.6909,345.71 L414.6909,345.71 M401.6909,364.71 L388.6909,379.71 M401.6909,364.71 L414.6909,379.71" fill="none" style="stroke:#181818;stroke-width:0.5;"/><text fill="#000000" font-family="sans-serif" font-size="14" lengthAdjust="spacing" textLength="53.3818" x="375" y="394.2051">Visiteur</text></g><!--entity Utilisateur--><g class="entity" data-entity="Utilisateur" data-source-line="5" data-uid="ent0003" id="entity_Utilisateur"><ellipse cx="208.0049" cy="594.71" fill="#F1F1F1" rx="8" ry="8" style="stroke:#181818;stroke-width:0.5;"/><path d="M208.0049,602.71 L208.0049,629.71 M195.0049,610.71 L221.0049,610.71 M208.0049,629.71 L195.0049,644.71 M208.0049,629.71 L221.0049,644.71" fill="none" style="stroke:#181818;stroke-width:0.5;"/><text fill="#000000" font-family="sans-serif" font-size="14" lengthAdjust="spacing" textLength="72.0098" x="172" y="659.2051">Utilisateur</text></g><!--entity Administrateur--><g class="entity" data-entity="Administrateur" data-source-line="6" data-uid="ent0004" id="entity_Administrateur"><ellipse cx="58.3018" cy="696.71" fill="#F1F1F1" rx="8" ry="8" style="stroke:#181818;stroke-width:0.5;"/><path d="M58.3018,704.71 L58.3018,731.71 M45.3018,712.71 L71.3018,712.71 M58.3018,731.71 L45.3018,746.71 M58.3018,731.71 L71.3018,746.71" fill="none" style="stroke:#181818;stroke-width:0.5;"/><text fill="#000000" font-family="sans-serif" font-size="14" lengthAdjust="spacing" textLength="104.6035" x="6" y="761.2051">Administrateur</text></g><!--link Utilisateur to Visiteur--><g class="link" data-entity-1="Utilisateur" data-entity-2="Visiteur" data-source-line="9" data-uid="lnk5" id="link_Utilisateur_Visiteur"><path d="M236.64,585.96 C273.62,534.79 328.1465,459.3288 364.1665,409.4888" fill="none" id="Utilisateur-to-Visiteur" style="stroke:#181818;stroke-width:1;"/><polygon fill="none" points="374.71,394.9,359.3035,405.9743,369.0294,413.0033,374.71,394.9" style="stroke:#181818;stroke-width:1;"/></g><!--link Administrateur to Utilisateur--><g class="link" data-entity-1="Administrateur" data-entity-2="Utilisateur" data-source-line="11" data-uid="lnk6" id="link_Administrateur_Utilisateur"><path d="M111.09,690.54 C131.19,676.63 138.917,671.3007 157.087,658.7307" fill="none" id="Administrateur-to-Utilisateur" style="stroke:#181818;stroke-width:1;"/><polygon fill="none" points="171.89,648.49,153.6735,653.7964,160.5006,663.665,171.89,648.49" style="stroke:#181818;stroke-width:1;"/></g><!--link Visiteur to UC_Inscrire--><g class="link" data-entity-1="Visiteur" data-entity-2="UC_Inscrire" data-source-line="39" data-uid="lnk26" id="link_Visiteur_UC_Inscrire"><path d="M428.22,364.99 C441.56,367.91 458.12,371.41 473,374.21 C525.6,384.11 580.3297,392.898 621.2297,399.188" fill="none" id="Visiteur-to-UC_Inscrire" style="stroke:#181818;stroke-width:1;"/><polygon fill="#181818" points="627.16,400.1,618.8726,394.7785,622.2181,399.34,617.6566,402.6855,627.16,400.1" style="stroke:#181818;stroke-width:1;"/></g><!--link Visiteur to UC_SeConnecter--><g class="link" data-entity-1="Visiteur" data-entity-2="UC_SeConnecter" data-source-line="40" data-uid="lnk27" id="link_Visiteur_UC_SeConnecter"><path d="M402.25,321.15 C404.23,270.49 416.23,182.52 473,141.21 C658.83,6 956.2024,183.8948 1038.6524,238.3148" fill="none" id="Visiteur-to-UC_SeConnecter" style="stroke:#181818;stroke-width:1;"/><polygon fill="#181818" points="1043.66,241.62,1038.3521,233.3238,1039.487,238.8657,1033.9452,240.0006,1043.66,241.62" style="stroke:#181818;stroke-width:1;"/></g><!--link Visiteur to UC_Rechercher--><g class="link" data-entity-1="Visiteur" data-entity-2="UC_Rechercher" data-source-line="41" data-uid="lnk28" id="link_Visiteur_UC_Rechercher"><path d="M409.17,397.46 C417.59,433.76 435.74,486.98 473,516.21 C506.58,542.55 546.9764,551.8864 586.7664,554.8364" fill="none" id="Visiteur-to-UC_Rechercher" style="stroke:#181818;stroke-width:1;"/><polygon fill="#181818" points="592.75,555.28,584.0704,550.6255,587.7637,554.9103,583.4789,558.6036,592.75,555.28" style="stroke:#181818;stroke-width:1;"/></g><!--link Visiteur to UC_VoirDetails--><g class="link" data-entity-1="Visiteur" data-entity-2="UC_VoirDetails" data-source-line="42" data-uid="lnk29" id="link_Visiteur_UC_VoirDetails"><path d="M411.05,321.11 C420.51,288.14 439.1,241.83 473,216.21 C505.42,191.71 543.0558,182.2658 581.4258,178.6958" fill="none" id="Visiteur-to-UC_VoirDetails" style="stroke:#181818;stroke-width:1;"/><polygon fill="#181818" points="587.4,178.14,578.0681,174.991,582.4215,178.6032,578.8093,182.9566,587.4,178.14" style="stroke:#181818;stroke-width:1;"/></g><!--link Visiteur to UC_ConsulterPublique--><g class="link" data-entity-1="Visiteur" data-entity-2="UC_ConsulterPublique" data-source-line="43" data-uid="lnk30" id="link_Visiteur_UC_ConsulterPublique"><path d="M428.14,332.98 C440.67,321.59 456.56,309.09 473,301.21 C504.26,286.23 534.8621,277.6723 568.1421,271.4523" fill="none" id="Visiteur-to-UC_ConsulterPublique" style="stroke:#181818;stroke-width:1;"/><polygon fill="#181818" points="574.04,270.35,564.4583,268.0715,569.1251,271.2686,565.9281,275.9354,574.04,270.35" style="stroke:#181818;stroke-width:1;"/></g><!--link Administrateur to UC_ReinitMDP--><g class="link" data-entity-1="Administrateur" data-entity-2="UC_ReinitMDP" data-source-line="45" data-uid="lnk31" id="link_Administrateur_UC_ReinitMDP"><path d="M111.14,726.21 C200.41,726.21 380.88,726.21 514.85,726.21" fill="none" id="Administrateur-to-UC_ReinitMDP" style="stroke:#181818;stroke-width:1;stroke-dasharray:7.0,7.0;"/><polygon fill="#181818" points="520.85,726.21,511.85,722.21,515.85,726.21,511.85,730.21,520.85,726.21" style="stroke:#181818;stroke-width:1;"/><text fill="#000000" font-family="sans-serif" font-size="13" lengthAdjust="spacing" textLength="63.0068" x="275" y="722.2769">&#171;include&#187;</text></g><!--link Administrateur to UC_ModifProfil--><g class="link" data-entity-1="Administrateur" data-entity-2="UC_ModifProfil" data-source-line="46" data-uid="lnk32" id="link_Administrateur_UC_ModifProfil"><path d="M111.14,733.85 C218.12,749.68 458.7546,785.2817 587.2846,804.3017" fill="none" id="Administrateur-to-UC_ModifProfil" style="stroke:#181818;stroke-width:1;stroke-dasharray:7.0,7.0;"/><polygon fill="#181818" points="593.22,805.18,584.9025,799.9056,588.2739,804.4481,583.7314,807.8194,593.22,805.18" style="stroke:#181818;stroke-width:1;"/><text fill="#000000" font-family="sans-serif" font-size="13" lengthAdjust="spacing" textLength="63.0068" x="275" y="754.2769">&#171;include&#187;</text></g><!--link UC_MDP_Oublie to UC_SeConnecter--><g class="link" data-entity-1="UC_MDP_Oublie" data-entity-2="UC_SeConnecter" data-source-line="50" data-uid="lnk33" id="link_UC_MDP_Oublie_UC_SeConnecter"><path d="M738.12,325.44 C772.28,318.34 815.5,309.33 854,301.21 C910.07,289.39 968.6231,276.8768 1011.3831,267.7168" fill="none" id="UC_MDP_Oublie-to-UC_SeConnecter" style="stroke:#181818;stroke-width:1;stroke-dasharray:7.0,7.0;"/><polygon fill="#181818" points="1017.25,266.46,1007.6118,264.4339,1012.3609,267.5073,1009.2875,272.2565,1017.25,266.46" style="stroke:#181818;stroke-width:1;"/><text fill="#000000" font-family="sans-serif" font-size="13" lengthAdjust="spacing" textLength="61.1851" x="864" y="283.2769">&#171;extend&#187;</text></g><!--link Utilisateur to UC_Auth--><g class="link" data-entity-1="Utilisateur" data-entity-2="UC_Auth" data-source-line="53" data-uid="lnk34" id="link_Utilisateur_UC_Auth"><path d="M244.37,624.21 C320.75,624.21 496.37,624.21 597.48,624.21" fill="none" id="Utilisateur-to-UC_Auth" style="stroke:#181818;stroke-width:1;stroke-dasharray:7.0,7.0;"/><polygon fill="#181818" points="603.48,624.21,594.48,620.21,598.48,624.21,594.48,628.21,603.48,624.21" style="stroke:#181818;stroke-width:1;"/><text fill="#000000" font-family="sans-serif" font-size="13" lengthAdjust="spacing" textLength="63.0068" x="370" y="620.2769">&#171;include&#187;</text></g><!--link UC_Auth to UC_ConsulterMoi--><g class="link" data-entity-1="UC_Auth" data-entity-2="UC_ConsulterMoi" data-source-line="54" data-uid="lnk35" id="link_UC_Auth_UC_ConsulterMoi"><path d="M733.72,634.37 C769.76,642.33 816.42,655.59 854,676.21 C858.14,678.48 857.78,681.08 862,683.21 C898.4,701.63 936.2964,711.5456 973.8964,717.9956" fill="none" id="UC_Auth-to-UC_ConsulterMoi" style="stroke:#181818;stroke-width:1;stroke-dasharray:7.0,7.0;"/><polygon fill="#181818" points="979.81,719.01,971.6159,713.5459,974.882,718.1646,970.2633,721.4308,979.81,719.01" style="stroke:#181818;stroke-width:1;"/><text fill="#000000" font-family="sans-serif" font-size="13" lengthAdjust="spacing" textLength="63.0068" x="863" y="679.2769">&#171;include&#187;</text></g><!--link UC_Auth to UC_Ajouter--><g class="link" data-entity-1="UC_Auth" data-entity-2="UC_Ajouter" data-source-line="55" data-uid="lnk36" id="link_UC_Auth_UC_Ajouter"><path d="M729.78,635.52 C766.7,642.77 817.1,651.48 862,655.21 C906.61,658.91 950.9116,659.0786 990.2916,658.1686" fill="none" id="UC_Auth-to-UC_Ajouter" style="stroke:#181818;stroke-width:1;stroke-dasharray:7.0,7.0;"/><polygon fill="#181818" points="996.29,658.03,987.2,654.239,991.2913,658.1455,987.3848,662.2369,996.29,658.03" style="stroke:#181818;stroke-width:1;"/><text fill="#000000" font-family="sans-serif" font-size="13" lengthAdjust="spacing" textLength="63.0068" x="863" y="651.2769">&#171;include&#187;</text></g><!--link UC_Auth to UC_Supprimer--><g class="link" data-entity-1="UC_Auth" data-entity-2="UC_Supprimer" data-source-line="56" data-uid="lnk37" id="link_UC_Auth_UC_Supprimer"><path d="M741.96,617.64 C811.27,610.68 914.42,600.3292 986.35,593.1092" fill="none" id="UC_Auth-to-UC_Supprimer" style="stroke:#181818;stroke-width:1;stroke-dasharray:7.0,7.0;"/><polygon fill="#181818" points="992.32,592.51,982.9655,589.4289,987.345,593.0094,983.7645,597.3889,992.32,592.51" style="stroke:#181818;stroke-width:1;"/><text fill="#000000" font-family="sans-serif" font-size="13" lengthAdjust="spacing" textLength="63.0068" x="863" y="596.2769">&#171;include&#187;</text></g><!--link UC_Auth to UC_Visibilite--><g class="link" data-entity-1="UC_Auth" data-entity-2="UC_Visibilite" data-source-line="57" data-uid="lnk38" id="link_UC_Auth_UC_Visibilite"><path d="M747.65,623.7 C782.48,620.27 823.39,611.21 854,589.21 C859.82,585.03 856.5,579.81 862,575.21 C888.41,553.1 902.39,560.28 935,549.21 C957.23,541.66 975.9974,535.5048 997.6674,528.5448" fill="none" id="UC_Auth-to-UC_Visibilite" style="stroke:#181818;stroke-width:1;stroke-dasharray:7.0,7.0;"/><polygon fill="#181818" points="1003.38,526.71,993.5879,525.6538,998.6195,528.239,996.0343,533.2706,1003.38,526.71" style="stroke:#181818;stroke-width:1;"/><text fill="#000000" font-family="sans-serif" font-size="13" lengthAdjust="spacing" textLength="63.0068" x="863" y="548.2769">&#171;include&#187;</text></g><!--link UC_Auth to UC_ChangerMDP--><g class="link" data-entity-1="UC_Auth" data-entity-2="UC_ChangerMDP" data-source-line="58" data-uid="lnk39" id="link_UC_Auth_UC_ChangerMDP"><path d="M746.84,627.16 C784.1,632.55 827.51,645.63 854,676.21 C870.46,695.21 847.02,712.02 862,732.21 C883.33,760.95 901.73,753.01 935,766.21 C956.32,774.67 974.3341,781.0045 995.6141,787.9245" fill="none" id="UC_Auth-to-UC_ChangerMDP" style="stroke:#181818;stroke-width:1;stroke-dasharray:7.0,7.0;"/><polygon fill="#181818" points="1001.32,789.78,993.9982,783.1928,996.5651,788.2338,991.5242,790.8007,1001.32,789.78" style="stroke:#181818;stroke-width:1;"/><text fill="#000000" font-family="sans-serif" font-size="13" lengthAdjust="spacing" textLength="63.0068" x="863" y="728.2769">&#171;include&#187;</text></g><!--link UC_Auth to UC_SeDeconnecter--><g class="link" data-entity-1="UC_Auth" data-entity-2="UC_SeDeconnecter" data-source-line="59" data-uid="lnk40" id="link_UC_Auth_UC_SeDeconnecter"><path d="M745.09,628.71 C782.5,627.25 826.64,618.45 854,589.21 C872.98,568.92 848.54,551.52 862,527.21 C882.34,490.47 898.85,488.59 935,467.21 C962.72,450.81 990.8999,439.4221 1017.1099,430.3521" fill="none" id="UC_Auth-to-UC_SeDeconnecter" style="stroke:#181818;stroke-width:1;stroke-dasharray:7.0,7.0;"/><polygon fill="#181818" points="1022.78,428.39,1012.9668,427.5532,1018.0549,430.0251,1015.583,435.1133,1022.78,428.39" style="stroke:#181818;stroke-width:1;"/><text fill="#000000" font-family="sans-serif" font-size="13" lengthAdjust="spacing" textLength="63.0068" x="863" y="468.2769">&#171;include&#187;</text></g><!--SRC=[XLNRJXin47tVhnZn4dW8VKSeKWXILOceY0ZwY5plXBWuzk8BAchvd-OxycCTUs_sPWcH8cNddBcTdPb8N3jm6enusZWeXK7kX5P5CO4vT-YDBHXtsi23i28yDu_tJaXXMMAPbrkXX7McDbA0h_kTskyCYqGA2XVWLUe9Q5qmjR7Xj4BlOCse32gAVdA45u_1aX7FYZJATFftrjStWPi9osffqxYt2i5M-nqNJ48vyKaFUVLroBH72dkbJUcfiDA3VRDk_s-BHP2BgIU9SB9gRF13F8ihxL-yK2Vmfm3wJ631R98nY75AkZ2xtrceD6KiqO916J4oIM-1oo24FOiXl4NEBENvfYmteWgy4w2ezul7scGm9wuGk5QAAaJJCbUuQ4qvUQdfxIDKpDAJzZ-bmDPdUNtx-3rQSfUvTnjKJgm5PsarmNwSMSzAoe-6W_9B76dWkZVc3dV8DsZ2DxniALvDrq8FvIuFMWJb7HColfw1Mu2lQpJt8n6jbrG1AInblJ9G1OreMbllZdJR0356CZ5B1elElHsL3_9iMPBg8CDIYqFd-I_Qe14n6lkXmyfNbH7R4PSE6IbnGzsGooljtq-QReTZGdPW3F1UZ8ROaeZRP0wxDckSvd2eu1NZptfDOuMZyjqXxRGJuG35yCc8nngJ0z1FId1fKmrMfAG9fa2LqMiXnxmZvJR2JQFluNBSzNjjXEAYOfAsdTNt5QOpuCFhK7GdSKfmkk938Dte8PQC_H1AHtk87Gxky3oUdyyoiIxWyf8Qaxx4sUm3Sg9DJiy4AYSD05y0VpjKPJZe61KQkL60WGBfgIkoazLcJsI2aBwENMU_gLz6p4zN6uY6DaYYmjy60XkUhrXYG8U7BVjRQZ873kGTjzQ6aQxnSMQxqaT9_HeVfVKx-KbrtVPzaZQzp3drFm00]--></g></svg>