<svg xmlns="http://www.w3.org/2000/svg" xmlns:xlink="http://www.w3.org/1999/xlink" contentStyleType="text/css" data-diagram-type="SEQUENCE" height="619px" preserveAspectRatio="none" style="width:1071px;height:619px;background:#FFFFFF;" version="1.1" viewBox="0 0 1071 619" width="1071px" zoomAndPan="magnify"><defs/><g><g><title>Utilisateur</title><rect fill="#000000" fill-opacity="0.00000" height="456.9922" width="8" x="40.0049" y="81.2969"/><line style="stroke:#181818;stroke-width:0.5;stroke-dasharray:5.0,5.0;" x1="44" x2="44" y1="81.2969" y2="538.2891"/></g><g><title>Front Web</title><rect fill="#000000" fill-opacity="0.00000" height="456.9922" width="8" x="326.7471" y="81.2969"/><line style="stroke:#181818;stroke-width:0.5;stroke-dasharray:5.0,5.0;" x1="330.4824" x2="330.4824" y1="81.2969" y2="538.2891"/></g><g><title>Service Backend</title><rect fill="#000000" fill-opacity="0.00000" height="456.9922" width="8" x="597.8486" y="81.2969"/><line style="stroke:#181818;stroke-width:0.5;stroke-dasharray:5.0,5.0;" x1="601.5723" x2="601.5723" y1="81.2969" y2="538.2891"/></g><g><title>Serveur Cache</title><rect fill="#000000" fill-opacity="0.00000" height="456.9922" width="8" x="851.856" y="81.2969"/><line style="stroke:#181818;stroke-width:0.5;stroke-dasharray:5.0,5.0;" x1="855.4702" x2="855.4702" y1="81.2969" y2="538.2891"/></g><g><title>API Externe Livres</title><rect fill="#000000" fill-opacity="0.00000" height="456.9922" width="8" x="990.8228" y="81.2969"/><line style="stroke:#181818;stroke-width:0.5;stroke-dasharray:5.0,5.0;" x1="994.2417" x2="994.2417" y1="81.2969" y2="538.2891"/></g><g class="participant participant-head" data-participant="Utilisateur"><text fill="#000000" font-family="sans-serif" font-size="14" lengthAdjust="spacing" textLength="72.0098" x="5" y="77.9951">Utilisateur</text><ellipse cx="44.0049" cy="13.5" fill="#E2E2F0" rx="8" ry="8" style="stroke:#181818;stroke-width:0.5;"/><path d="M44.0049,21.5 L44.0049,48.5 M31.0049,29.5 L57.0049,29.5 M44.0049,48.5 L31.0049,63.5 M44.0049,48.5 L57.0049,63.5" fill="none" style="stroke:#181818;stroke-width:0.5;"/></g><g class="participant participant-tail" data-participant="Utilisateur"><text fill="#000000" font-family="sans-serif" font-size="14" lengthAdjust="spacing" textLength="72.0098" x="5" y="550.2842">Utilisateur</text><ellipse cx="44.0049" cy="562.0859" fill="#E2E2F0" rx="8" ry="8" style="stroke:#181818;stroke-width:0.5;"/><path d="M44.0049,570.0859 L44.0049,597.0859 M31.0049,578.0859 L57.0049,578.0859 M44.0049,597.0859 L31.0049,612.0859 M44.0049,597.0859 L57.0049,612.0859" fill="none" style="stroke:#181818;stroke-width:0.5;"/></g><g class="participant participant-head" data-participant="UI"><rect fill="#E2E2F0" height="30.2969" rx="2.5" ry="2.5" style="stroke:#181818;stroke-width:0.5;" width="86.5293" x="287.4824" y="50"/><text fill="#000000" font-family="sans-serif" font-size="14" lengthAdjust="spacing" textLength="72.5293" x="294.4824" y="69.9951">Front Web</text></g><g class="participant participant-tail" data-participant="UI"><rect fill="#E2E2F0" height="30.2969" rx="2.5" ry="2.5" style="stroke:#181818;stroke-width:0.5;" width="86.5293" x="287.4824" y="537.2891"/><text fill="#000000" font-family="sans-serif" font-size="14" lengthAdjust="spacing" textLength="72.5293" x="294.4824" y="557.2842">Front Web</text></g><g class="participant participant-head" data-participant="BACK"><rect fill="#E2E2F0" height="30.2969" rx="2.5" ry="2.5" style="stroke:#181818;stroke-width:0.5;" width="130.5527" x="536.5723" y="50"/><text fill="#000000" font-family="sans-serif" font-size="14" lengthAdjust="spacing" textLength="116.5527" x="543.5723" y="69.9951">Service Backend</text></g><g class="participant participant-tail" data-participant="BACK"><rect fill="#E2E2F0" height="30.2969" rx="2.5" ry="2.5" style="stroke:#181818;stroke-width:0.5;" width="130.5527" x="536.5723" y="537.2891"/><text fill="#000000" font-family="sans-serif" font-size="14" lengthAdjust="spacing" textLength="116.5527" x="543.5723" y="557.2842">Service Backend</text></g><g class="participant participant-head" data-participant="CACHE"><rect fill="#E2E2F0" height="30.2969" rx="2.5" ry="2.5" style="stroke:#181818;stroke-width:0.5;" width="116.7715" x="797.4702" y="50"/><text fill="#000000" font-family="sans-serif" font-size="14" lengthAdjust="spacing" textLength="102.7715" x="804.4702" y="69.9951">Serveur Cache</text></g><g class="participant participant-tail" data-participant="CACHE"><rect fill="#E2E2F0" height="30.2969" rx="2.5" ry="2.5" style="stroke:#181818;stroke-width:0.5;" width="116.7715" x="797.4702" y="537.2891"/><text fill="#000000" font-family="sans-serif" font-size="14" lengthAdjust="spacing" textLength="102.7715" x="804.4702" y="557.2842">Serveur Cache</text></g><g class="participant participant-head" data-participant="EXT"><rect fill="#E2E2F0" height="30.2969" rx="2.5" ry="2.5" style="stroke:#181818;stroke-width:0.5;" width="141.1621" x="924.2417" y="50"/><text fill="#000000" font-family="sans-serif" font-size="14" lengthAdjust="spacing" textLength="127.1621" x="931.2417" y="69.9951">API Externe Livres</text></g><g class="participant participant-tail" data-participant="EXT"><rect fill="#E2E2F0" height="30.2969" rx="2.5" ry="2.5" style="stroke:#181818;stroke-width:0.5;" width="141.1621" x="924.2417" y="537.2891"/><text fill="#000000" font-family="sans-serif" font-size="14" lengthAdjust="spacing" textLength="127.1621" x="931.2417" y="557.2842">API Externe Livres</text></g><g class="message" data-participant-1="Utilisateur" data-participant-2="UI"><polygon fill="#181818" points="318.7471,108.4297,328.7471,112.4297,318.7471,116.4297,322.7471,112.4297" style="stroke:#181818;stroke-width:1;"/><line style="stroke:#181818;stroke-width:1;" x1="44.0049" x2="324.7471" y1="112.4297" y2="112.4297"/><text fill="#000000" font-family="sans-serif" font-size="13" lengthAdjust="spacing" textLength="262.7422" x="51.0049" y="107.3638">Acc&#233;der &#224; une page de d&#233;tails d'un livre</text></g><g class="message" data-participant-1="UI" data-participant-2="BACK"><polygon fill="#181818" points="589.8486,137.5625,599.8486,141.5625,589.8486,145.5625,593.8486,141.5625" style="stroke:#181818;stroke-width:1;"/><line style="stroke:#181818;stroke-width:1;" x1="330.7471" x2="595.8486" y1="141.5625" y2="141.5625"/><text fill="#000000" font-family="sans-serif" font-size="13" lengthAdjust="spacing" textLength="114.2261" x="337.7471" y="136.4966">GET /book/{isbn}</text></g><g class="message" data-participant-1="BACK" data-participant-2="CACHE"><polygon fill="#181818" points="843.856,166.6953,853.856,170.6953,843.856,174.6953,847.856,170.6953" style="stroke:#181818;stroke-width:1;"/><line style="stroke:#181818;stroke-width:1;" x1="601.8486" x2="849.856" y1="170.6953" y2="170.6953"/><text fill="#000000" font-family="sans-serif" font-size="13" lengthAdjust="spacing" textLength="73.7788" x="608.8486" y="165.6294">GET {isbn}</text></g><g class="message" data-participant-1="CACHE" data-participant-2="BACK"><polygon fill="#181818" points="612.8486,195.8281,602.8486,199.8281,612.8486,203.8281,608.8486,199.8281" style="stroke:#181818;stroke-width:1;"/><line style="stroke:#181818;stroke-width:1;stroke-dasharray:2.0,2.0;" x1="606.8486" x2="854.856" y1="199.8281" y2="199.8281"/><text fill="#000000" font-family="sans-serif" font-size="13" lengthAdjust="spacing" textLength="44.3257" x="618.8486" y="194.7622">absent</text></g><g class="message" data-participant-1="BACK" data-participant-2="EXT"><polygon fill="#181818" points="982.8228,224.9609,992.8228,228.9609,982.8228,232.9609,986.8228,228.9609" style="stroke:#181818;stroke-width:1;"/><line style="stroke:#181818;stroke-width:1;" x1="601.8486" x2="988.8228" y1="228.9609" y2="228.9609"/><text fill="#000000" font-family="sans-serif" font-size="13" lengthAdjust="spacing" textLength="130.2666" x="608.8486" y="223.895">GET /books?isbn=...</text></g><g class="message" data-participant-1="EXT" data-participant-2="BACK"><polygon fill="#181818" points="612.8486,254.0938,602.8486,258.0938,612.8486,262.0938,608.8486,258.0938" style="stroke:#181818;stroke-width:1;"/><line style="stroke:#181818;stroke-width:1;stroke-dasharray:2.0,2.0;" x1="606.8486" x2="993.8228" y1="258.0938" y2="258.0938"/><text fill="#000000" font-family="sans-serif" font-size="13" lengthAdjust="spacing" textLength="128.2671" x="618.8486" y="253.0278">200 (m&#233;tadonn&#233;es)</text></g><g class="message" data-participant-1="BACK" data-participant-2="CACHE"><polygon fill="#181818" points="843.856,283.2266,853.856,287.2266,843.856,291.2266,847.856,287.2266" style="stroke:#181818;stroke-width:1;"/><line style="stroke:#181818;stroke-width:1;" x1="601.8486" x2="849.856" y1="287.2266" y2="287.2266"/><text fill="#000000" font-family="sans-serif" font-size="13" lengthAdjust="spacing" textLength="169.7935" x="608.8486" y="282.1606">sauvegarde m&#233;tadonn&#233;es</text></g><g class="message" data-participant-1="BACK" data-participant-2="UI"><polygon fill="#181818" points="341.7471,312.3594,331.7471,316.3594,341.7471,320.3594,337.7471,316.3594" style="stroke:#181818;stroke-width:1;"/><line style="stroke:#181818;stroke-width:1;stroke-dasharray:2.0,2.0;" x1="335.7471" x2="600.8486" y1="316.3594" y2="316.3594"/><text fill="#000000" font-family="sans-serif" font-size="13" lengthAdjust="spacing" textLength="247.1016" x="347.7471" y="311.2935">M&#233;tadonn&#233;es du livre demand&#233; (json)</text></g><g class="message" data-participant-1="UI" data-participant-2="Utilisateur"><polygon fill="#181818" points="55.0049,341.4922,45.0049,345.4922,55.0049,349.4922,51.0049,345.4922" style="stroke:#181818;stroke-width:1;"/><line style="stroke:#181818;stroke-width:1;stroke-dasharray:2.0,2.0;" x1="49.0049" x2="329.7471" y1="345.4922" y2="345.4922"/><text fill="#000000" font-family="sans-serif" font-size="13" lengthAdjust="spacing" textLength="80.1392" x="61.0049" y="340.4263">Livre affich&#233;</text></g><g class="message" data-participant-1="Utilisateur" data-participant-2="UI"><polygon fill="#181818" points="318.7471,370.625,328.7471,374.625,318.7471,378.625,322.7471,374.625" style="stroke:#181818;stroke-width:1;"/><line style="stroke:#181818;stroke-width:1;" x1="44.0049" x2="324.7471" y1="374.625" y2="374.625"/><text fill="#000000" font-family="sans-serif" font-size="13" lengthAdjust="spacing" textLength="262.7422" x="51.0049" y="369.5591">Acc&#233;der &#224; une page de d&#233;tails d'un livre</text></g><g class="message" data-participant-1="UI" data-participant-2="BACK"><polygon fill="#181818" points="589.8486,399.7578,599.8486,403.7578,589.8486,407.7578,593.8486,403.7578" style="stroke:#181818;stroke-width:1;"/><line style="stroke:#181818;stroke-width:1;" x1="330.7471" x2="595.8486" y1="403.7578" y2="403.7578"/><text fill="#000000" font-family="sans-serif" font-size="13" lengthAdjust="spacing" textLength="114.2261" x="337.7471" y="398.6919">GET /book/{isbn}</text></g><g class="message" data-participant-1="BACK" data-participant-2="CACHE"><polygon fill="#181818" points="843.856,428.8906,853.856,432.8906,843.856,436.8906,847.856,432.8906" style="stroke:#181818;stroke-width:1;"/><line style="stroke:#181818;stroke-width:1;" x1="601.8486" x2="849.856" y1="432.8906" y2="432.8906"/><text fill="#000000" font-family="sans-serif" font-size="13" lengthAdjust="spacing" textLength="73.7788" x="608.8486" y="427.8247">GET {isbn}</text></g><g class="message" data-participant-1="CACHE" data-participant-2="BACK"><polygon fill="#181818" points="612.8486,458.0234,602.8486,462.0234,612.8486,466.0234,608.8486,462.0234" style="stroke:#181818;stroke-width:1;"/><line style="stroke:#181818;stroke-width:1;stroke-dasharray:2.0,2.0;" x1="606.8486" x2="854.856" y1="462.0234" y2="462.0234"/><text fill="#000000" font-family="sans-serif" font-size="13" lengthAdjust="spacing" textLength="230.0073" x="618.8486" y="456.9575">pr&#233;sent, retourne les m&#233;tadonn&#233;es</text></g><g class="message" data-participant-1="BACK" data-participant-2="UI"><polygon fill="#181818" points="341.7471,487.1563,331.7471,491.1563,341.7471,495.1563,337.7471,491.1563" style="stroke:#181818;stroke-width:1;"/><line style="stroke:#181818;stroke-width:1;stroke-dasharray:2.0,2.0;" x1="335.7471" x2="600.8486" y1="491.1563" y2="491.1563"/><text fill="#000000" font-family="sans-serif" font-size="13" lengthAdjust="spacing" textLength="247.1016" x="347.7471" y="486.0903">M&#233;tadonn&#233;es du livre demand&#233; (json)</text></g><g class="message" data-participant-1="UI" data-participant-2="Utilisateur"><polygon fill="#181818" points="55.0049,516.2891,45.0049,520.2891,55.0049,524.2891,51.0049,520.2891" style="stroke:#181818;stroke-width:1;"/><line style="stroke:#181818;stroke-width:1;stroke-dasharray:2.0,2.0;" x1="49.0049" x2="329.7471" y1="520.2891" y2="520.2891"/><text fill="#000000" font-family="sans-serif" font-size="13" lengthAdjust="spacing" textLength="80.1392" x="61.0049" y="515.2231">Livre affich&#233;</text></g><!--SRC=[pL9TIyCm57tlhxZinGtS1puMLBfITQWWED7Ns_HkY-kIagH34F-Bh_qT_MFUP4DRV1SX4BZdd9jp3a7Xj84d9qjfqL5jeWgDaq9Mg1mChepcwvdo0Q25fqKVVIIpbu9WZc9BgWYSUPBU_cRnOaXHR2XmqYIzoVgav641sPiZemZkvDwG3SpiPHb57NSmlc0N44CYHDiKPA3zX9er5Qu92Zvjur2M5egJMa7fDqKiO9atniBhR0dJNEljz5tQN7r4OSvuC7Ka7A73QFmZnjoISjyITjVTQ2-zx7mocKGUwUZEPZCOxhorGYlLDcH7_NTZi5ZlQOs6C_I8Hrx87SDz5uAYFYJau3jK71s6hrQhKKZi5PtYuaEjWAkL59ks-K-rLgPjVB6dOCZfsl-1akFzIGzV]--></g></svg>