<?xml version="1.0" encoding="utf-8"?>
<!-- Generated by Mocodo 4.3.2 -->
<svg width="394" height="338" viewBox="0 0 394 338" xmlns="http://www.w3.org/2000/svg">
<rect x="0" y="0" width="394" height="338" fill="#ffffbf" stroke="none" stroke-width="0"/>

<!-- Association POSSEDER -->
<g>
	<line x1="77" y1="77" x2="218" y2="77" stroke="#66bd63" stroke-width="2"/>
	<line x1="338" y1="77" x2="218" y2="77" stroke="#66bd63" stroke-width="2"/>
	<g>
		<path d="M245 52 a14 14 90 0 1 14 14 V77 h-82 V66 a14 14 90 0 1 14 -14" fill="#a6d96a" stroke="#a6d96a" stroke-width="0"/>
		<path d="M259 77 v11 a14 14 90 0 1 -14 14 H191 a14 14 90 0 1 -14 -14 V77 H82" fill="#d9ef8b" stroke="#d9ef8b" stroke-width="0"/>
		<rect x="177" y="52" width="82" height="50" fill="none" rx="14" stroke="#66bd63" stroke-width="2"/>
		<line x1="177" y1="77" x2="259" y2="77" stroke="#66bd63" stroke-width="1"/>
		<text x="185" y="69.75" fill="#000000" font-family="Verdana" font-size="12">POSSEDER</text>
	</g>
	<text x="150" y="94" fill="#d73027" font-family="Verdana" font-size="12">1,N</text>
	<text x="265" y="94" fill="#d73027" font-family="Verdana" font-size="12">1,1</text>
</g>

<!-- Association AVOIR -->
<g>
	<line x1="77" y1="287" x2="77" y2="195" stroke="#66bd63" stroke-width="2"/>
	<line x1="77" y1="77" x2="77" y2="195" stroke="#66bd63" stroke-width="2"/>
	<g>
		<path d="M90 170 a14 14 90 0 1 14 14 V195 h-54 V184 a14 14 90 0 1 14 -14" fill="#a6d96a" stroke="#a6d96a" stroke-width="0"/>
		<path d="M104 195 v11 a14 14 90 0 1 -14 14 H64 a14 14 90 0 1 -14 -14 V195 H54" fill="#d9ef8b" stroke="#d9ef8b" stroke-width="0"/>
		<rect x="50" y="170" width="54" height="50" fill="none" rx="14" stroke="#66bd63" stroke-width="2"/>
		<line x1="50" y1="195" x2="104" y2="195" stroke="#66bd63" stroke-width="1"/>
		<text x="57" y="187.75" fill="#000000" font-family="Verdana" font-size="12">AVOIR</text>
	</g>
	<text x="82" y="237" fill="#d73027" font-family="Verdana" font-size="12">0,N</text>
	<text x="82" y="162" fill="#d73027" font-family="Verdana" font-size="12">1,1</text>
</g>

<!-- Association CONTENIR -->
<g>
	<line x1="338" y1="77" x2="338" y2="195" stroke="#66bd63" stroke-width="2"/>
	<line x1="218" y1="195" x2="338" y2="195" stroke="#66bd63" stroke-width="2"/>
	<g>
		<path d="M364 170 a14 14 90 0 1 14 14 V195 h-80 V184 a14 14 90 0 1 14 -14" fill="#a6d96a" stroke="#a6d96a" stroke-width="0"/>
		<path d="M378 195 v11 a14 14 90 0 1 -14 14 H312 a14 14 90 0 1 -14 -14 V195 H80" fill="#d9ef8b" stroke="#d9ef8b" stroke-width="0"/>
		<rect x="298" y="170" width="80" height="50" fill="none" rx="14" stroke="#66bd63" stroke-width="2"/>
		<line x1="298" y1="195" x2="378" y2="195" stroke="#66bd63" stroke-width="1"/>
		<text x="306" y="187.75" fill="#000000" font-family="Verdana" font-size="12">CONTENIR</text>
	</g>
	<text x="343" y="128" fill="#d73027" font-family="Verdana" font-size="12">0,N</text>
	<text x="261" y="212" fill="#d73027" font-family="Verdana" font-size="12">1,1</text>
</g>

<!-- Entity UTILISATEUR -->
<g>
	<g>
		<rect x="9" y="9" width="136" height="25" fill="#fdae61" stroke="none" stroke-width="0" opacity="1"/>
		<rect x="9" y="34" width="136" height="111" fill="#fee08b" stroke="none" stroke-width="0" opacity="1"/>
		<rect x="9" y="9" width="136" height="136" fill="none" stroke="#f46d43" stroke-width="2" opacity="1"/>
		<line x1="9" y1="34" x2="145" y2="34" stroke="#f46d43" stroke-width="1"/>
	</g>
	<text x="36" y="26.75" fill="#000000" font-family="Verdana" font-size="12">UTILISATEUR</text>
	<text x="14" y="51.8" fill="#000000" font-family="Verdana" font-size="12">id</text>
	<line x1="14" y1="54" x2="26" y2="54" stroke="#000000" stroke-width="1"/>
	<text x="14" y="68.8" fill="#000000" font-family="Verdana" font-size="12">email</text>
	<text x="14" y="85.8" fill="#000000" font-family="Verdana" font-size="12">mot_de_passe_hash</text>
	<text x="14" y="102.8" fill="#000000" font-family="Verdana" font-size="12">nom_profil</text>
	<text x="14" y="119.8" fill="#000000" font-family="Verdana" font-size="12">date_creation</text>
	<text x="14" y="136.8" fill="#000000" font-family="Verdana" font-size="12">role_id</text>
</g>

<!-- Entity COLLECTION -->
<g>
	<g>
		<rect x="291" y="43" width="94" height="25" fill="#fdae61" stroke="none" stroke-width="0" opacity="1"/>
		<rect x="291" y="68" width="94" height="43" fill="#fee08b" stroke="none" stroke-width="0" opacity="1"/>
		<rect x="291" y="43" width="94" height="68" fill="none" stroke="#f46d43" stroke-width="2" opacity="1"/>
		<line x1="291" y1="68" x2="385" y2="68" stroke="#f46d43" stroke-width="1"/>
	</g>
	<text x="299" y="60.75" fill="#000000" font-family="Verdana" font-size="12">COLLECTION</text>
	<text x="296" y="85.8" fill="#000000" font-family="Verdana" font-size="12">id</text>
	<line x1="296" y1="88" x2="308" y2="88" stroke="#000000" stroke-width="1"/>
	<text x="296" y="102.8" fill="#000000" font-family="Verdana" font-size="12">date_creation</text>
</g>

<!-- Entity LIVRE -->
<g>
	<g>
		<rect x="180" y="153" width="76" height="25" fill="#fdae61" stroke="none" stroke-width="0" opacity="1"/>
		<rect x="180" y="178" width="76" height="59" fill="#fee08b" stroke="none" stroke-width="0" opacity="1"/>
		<rect x="180" y="153" width="76" height="84" fill="none" stroke="#f46d43" stroke-width="2" opacity="1"/>
		<line x1="180" y1="178" x2="256" y2="178" stroke="#f46d43" stroke-width="1"/>
	</g>
	<text x="200" y="170.75" fill="#000000" font-family="Verdana" font-size="12">LIVRE</text>
	<text x="185" y="195.8" fill="#000000" font-family="Verdana" font-size="12">isbn</text>
	<line x1="185" y1="198" x2="211" y2="198" stroke="#000000" stroke-width="1"/>
	<text x="185" y="212.8" fill="#000000" font-family="Verdana" font-size="12">date_ajout</text>
	<text x="185" y="229.8" fill="#000000" font-family="Verdana" font-size="12">is_visible</text>
</g>

<!-- Entity ROLE -->
<g>
	<g>
		<rect x="30" y="245" width="94" height="25" fill="#fdae61" stroke="none" stroke-width="0" opacity="1"/>
		<rect x="30" y="270" width="94" height="59" fill="#fee08b" stroke="none" stroke-width="0" opacity="1"/>
		<rect x="30" y="245" width="94" height="84" fill="none" stroke="#f46d43" stroke-width="2" opacity="1"/>
		<line x1="30" y1="270" x2="124" y2="270" stroke="#f46d43" stroke-width="1"/>
	</g>
	<text x="61" y="262.75" fill="#000000" font-family="Verdana" font-size="12">ROLE</text>
	<text x="35" y="287.8" fill="#000000" font-family="Verdana" font-size="12">id</text>
	<line x1="35" y1="290" x2="47" y2="290" stroke="#000000" stroke-width="1"/>
	<text x="35" y="304.8" fill="#000000" font-family="Verdana" font-size="12">nom</text>
	<text x="35" y="321.8" fill="#000000" font-family="Verdana" font-size="12">date_creation</text>
</g>
</svg>