<?xml version="1.0" encoding="utf-8"?>
<!-- Generated by Mocodo 4.3.2 -->
<svg width="404" height="320" viewBox="0 0 404 320" xmlns="http://www.w3.org/2000/svg">
<rect x="0" y="0" width="404" height="320" fill="#ffffbf" stroke="none" stroke-width="0"/>

<!-- Association POSSEDER -->
<g>
	<line x1="77" y1="68" x2="218" y2="68" stroke="#66bd63" stroke-width="2"/>
	<line x1="343" y1="68" x2="218" y2="68" stroke="#66bd63" stroke-width="2"/>
	<g>
		<path d="M245 43 a14 14 90 0 1 14 14 V68 h-82 V57 a14 14 90 0 1 14 -14" fill="#a6d96a" stroke="#a6d96a" stroke-width="0"/>
		<path d="M259 68 v11 a14 14 90 0 1 -14 14 H191 a14 14 90 0 1 -14 -14 V68 H82" fill="#d9ef8b" stroke="#d9ef8b" stroke-width="0"/>
		<rect x="177" y="43" width="82" height="50" fill="none" rx="14" stroke="#66bd63" stroke-width="2"/>
		<line x1="177" y1="68" x2="259" y2="68" stroke="#66bd63" stroke-width="1"/>
		<text x="185" y="60.75" fill="#000000" font-family="Verdana" font-size="12">POSSEDER</text>
	</g>
	<text x="150" y="85" fill="#d73027" font-family="Verdana" font-size="12">1,N</text>
	<text x="265" y="85" fill="#d73027" font-family="Verdana" font-size="12">1,1</text>
</g>

<!-- Association AVOIR -->
<g>
	<line x1="77" y1="269" x2="77" y2="177" stroke="#66bd63" stroke-width="2"/>
	<line x1="77" y1="68" x2="77" y2="177" stroke="#66bd63" stroke-width="2"/>
	<g>
		<path d="M90 152 a14 14 90 0 1 14 14 V177 h-54 V166 a14 14 90 0 1 14 -14" fill="#a6d96a" stroke="#a6d96a" stroke-width="0"/>
		<path d="M104 177 v11 a14 14 90 0 1 -14 14 H64 a14 14 90 0 1 -14 -14 V177 H54" fill="#d9ef8b" stroke="#d9ef8b" stroke-width="0"/>
		<rect x="50" y="152" width="54" height="50" fill="none" rx="14" stroke="#66bd63" stroke-width="2"/>
		<line x1="50" y1="177" x2="104" y2="177" stroke="#66bd63" stroke-width="1"/>
		<text x="57" y="169.75" fill="#000000" font-family="Verdana" font-size="12">AVOIR</text>
	</g>
	<text x="82" y="219" fill="#d73027" font-family="Verdana" font-size="12">0,N</text>
	<text x="82" y="144" fill="#d73027" font-family="Verdana" font-size="12">1,1</text>
</g>

<!-- Association CONTENIR -->
<g>
	<line x1="343" y1="68" x2="343" y2="177" stroke="#66bd63" stroke-width="2"/>
	<line x1="218" y1="177" x2="343" y2="177" stroke="#66bd63" stroke-width="2"/>
	<g>
		<path d="M369 152 a14 14 90 0 1 14 14 V177 h-80 V166 a14 14 90 0 1 14 -14" fill="#a6d96a" stroke="#a6d96a" stroke-width="0"/>
		<path d="M383 177 v11 a14 14 90 0 1 -14 14 H317 a14 14 90 0 1 -14 -14 V177 H80" fill="#d9ef8b" stroke="#d9ef8b" stroke-width="0"/>
		<rect x="303" y="152" width="80" height="50" fill="none" rx="14" stroke="#66bd63" stroke-width="2"/>
		<line x1="303" y1="177" x2="383" y2="177" stroke="#66bd63" stroke-width="1"/>
		<text x="311" y="169.75" fill="#000000" font-family="Verdana" font-size="12">CONTENIR</text>
	</g>
	<text x="348" y="119" fill="#d73027" font-family="Verdana" font-size="12">0,N</text>
	<text x="261" y="194" fill="#d73027" font-family="Verdana" font-size="12">1,1</text>
</g>

<!-- Entity UTILISATEUR -->
<g>
	<g>
		<rect x="9" y="9" width="136" height="25" fill="#fdae61" stroke="none" stroke-width="0" opacity="1"/>
		<rect x="9" y="34" width="136" height="93" fill="#fee08b" stroke="none" stroke-width="0" opacity="1"/>
		<rect x="9" y="9" width="136" height="118" fill="none" stroke="#f46d43" stroke-width="2" opacity="1"/>
		<line x1="9" y1="34" x2="145" y2="34" stroke="#f46d43" stroke-width="1"/>
	</g>
	<text x="36" y="26.75" fill="#000000" font-family="Verdana" font-size="12">UTILISATEUR</text>
	<text x="14" y="51.8" fill="#000000" font-family="Verdana" font-size="12">code_utilisateur</text>
	<line x1="14" y1="54" x2="111" y2="54" stroke="#000000" stroke-width="1"/>
	<text x="14" y="68.8" fill="#000000" font-family="Verdana" font-size="12">email</text>
	<text x="14" y="85.8" fill="#000000" font-family="Verdana" font-size="12">mot_de_passe_hash</text>
	<text x="14" y="102.8" fill="#000000" font-family="Verdana" font-size="12">nom_profil</text>
	<text x="14" y="119.8" fill="#000000" font-family="Verdana" font-size="12">date_creation</text>
</g>

<!-- Entity COLLECTION -->
<g>
	<g>
		<rect x="291" y="34" width="104" height="25" fill="#fdae61" stroke="none" stroke-width="0" opacity="1"/>
		<rect x="291" y="59" width="104" height="43" fill="#fee08b" stroke="none" stroke-width="0" opacity="1"/>
		<rect x="291" y="34" width="104" height="68" fill="none" stroke="#f46d43" stroke-width="2" opacity="1"/>
		<line x1="291" y1="59" x2="395" y2="59" stroke="#f46d43" stroke-width="1"/>
	</g>
	<text x="304" y="51.75" fill="#000000" font-family="Verdana" font-size="12">COLLECTION</text>
	<text x="296" y="76.8" fill="#000000" font-family="Verdana" font-size="12">code_collection</text>
	<line x1="296" y1="79" x2="389" y2="79" stroke="#000000" stroke-width="1"/>
	<text x="296" y="93.8" fill="#000000" font-family="Verdana" font-size="12">date_creation</text>
</g>

<!-- Entity LIVRE -->
<g>
	<g>
		<rect x="180" y="135" width="76" height="25" fill="#fdae61" stroke="none" stroke-width="0" opacity="1"/>
		<rect x="180" y="160" width="76" height="59" fill="#fee08b" stroke="none" stroke-width="0" opacity="1"/>
		<rect x="180" y="135" width="76" height="84" fill="none" stroke="#f46d43" stroke-width="2" opacity="1"/>
		<line x1="180" y1="160" x2="256" y2="160" stroke="#f46d43" stroke-width="1"/>
	</g>
	<text x="200" y="152.75" fill="#000000" font-family="Verdana" font-size="12">LIVRE</text>
	<text x="185" y="177.8" fill="#000000" font-family="Verdana" font-size="12">isbn</text>
	<line x1="185" y1="180" x2="211" y2="180" stroke="#000000" stroke-width="1"/>
	<text x="185" y="194.8" fill="#000000" font-family="Verdana" font-size="12">date_ajout</text>
	<text x="185" y="211.8" fill="#000000" font-family="Verdana" font-size="12">is_visible</text>
</g>

<!-- Entity ROLE -->
<g>
	<g>
		<rect x="30" y="227" width="94" height="25" fill="#fdae61" stroke="none" stroke-width="0" opacity="1"/>
		<rect x="30" y="252" width="94" height="59" fill="#fee08b" stroke="none" stroke-width="0" opacity="1"/>
		<rect x="30" y="227" width="94" height="84" fill="none" stroke="#f46d43" stroke-width="2" opacity="1"/>
		<line x1="30" y1="252" x2="124" y2="252" stroke="#f46d43" stroke-width="1"/>
	</g>
	<text x="61" y="244.75" fill="#000000" font-family="Verdana" font-size="12">ROLE</text>
	<text x="35" y="269.8" fill="#000000" font-family="Verdana" font-size="12">code_role</text>
	<line x1="35" y1="272" x2="95" y2="272" stroke="#000000" stroke-width="1"/>
	<text x="35" y="286.8" fill="#000000" font-family="Verdana" font-size="12">nom</text>
	<text x="35" y="303.8" fill="#000000" font-family="Verdana" font-size="12">date_creation</text>
</g>
</svg>