
<svg xmlns="http://www.w3.org/2000/svg" xmlns:xlink="http://www.w3.org/1999/xlink" contentStyleType="text/css" data-diagram-type="DESCRIPTION" height="936px" preserveAspectRatio="none" style="width:476px;height:936px;background:#FFFFFF;" version="1.1" viewBox="0 0 476 936" width="476px" zoomAndPan="magnify"><defs/><g><!--cluster Collection personnelle--><g class="cluster" data-entity="Collection personnelle" data-source-line="15" data-uid="ent0019" id="cluster_Collection personnelle"><rect fill="none" height="240" rx="2.5" ry="2.5" style="stroke:#181818;stroke-width:1;" width="247" x="197.5" y="690.5"/><text fill="#000000" font-family="sans-serif" font-size="14" font-weight="bold" lengthAdjust="spacing" textLength="176.1279" x="232.936" y="705.4951">Collection personnelle</text></g><!--cluster Collection d'un autre utilisateur--><g class="cluster" data-entity="Collection d'un autre utilisateur" data-source-line="21" data-uid="ent0026" id="cluster_Collection d'un autre utilisateur"><rect fill="none" height="81" rx="2.5" ry="2.5" style="stroke:#181818;stroke-width:1;" width="267" x="187.5" y="463.5"/><text fill="#000000" font-family="sans-serif" font-size="14" font-weight="bold" lengthAdjust="spacing" textLength="251.624" x="195.188" y="478.4951">Collection d'un autre utilisateur</text></g><!--entity Basculer visibilit? d'un livre--><g class="entity" data-entity="Basculer visibilit&#233; d'un livre" data-source-line="16" data-uid="ent0020" id="entity_Basculer visibilit&#233; d'un livre"><ellipse cx="321.0588" cy="749.4118" fill="#F1F1F1" rx="107.5588" ry="23.9118" style="stroke:#181818;stroke-width:0.5;"/><text fill="#000000" font-family="sans-serif" font-size="14" lengthAdjust="spacing" textLength="192.5889" x="224.7644" y="754.0602">Basculer visibilit&#233; d'un livre</text></g><!--entity Ajouter un livre--><g class="entity" data-entity="Ajouter un livre" data-source-line="17" data-uid="ent0022" id="entity_Ajouter un livre"><ellipse cx="321.0832" cy="825.5166" fill="#F1F1F1" rx="70.5832" ry="16.5166" style="stroke:#181818;stroke-width:0.5;"/><text fill="#000000" font-family="sans-serif" font-size="14" lengthAdjust="spacing" textLength="107.8438" x="267.1614" y="830.1651">Ajouter un livre</text></g><!--entity Supprimer un livre--><g class="entity" data-entity="Supprimer un livre" data-source-line="18" data-uid="ent0024" id="entity_Supprimer un livre"><ellipse cx="320.8258" cy="895.3652" fill="#F1F1F1" rx="79.8258" ry="18.3652" style="stroke:#181818;stroke-width:0.5;"/><text fill="#000000" font-family="sans-serif" font-size="14" lengthAdjust="spacing" textLength="130.2656" x="255.693" y="900.0136">Supprimer un livre</text></g><!--entity Voir--><g class="entity" data-entity="Voir" data-source-line="22" data-uid="ent0027" id="entity_Voir"><ellipse cx="321.1491" cy="513.5236" fill="#F1F1F1" rx="22.6491" ry="14.5236" style="stroke:#181818;stroke-width:0.5;"/><text fill="#000000" font-family="sans-serif" font-size="14" lengthAdjust="spacing" textLength="27.7881" x="307.2551" y="518.1721">Voir</text></g><!--entity Utilisateur--><g class="entity" data-entity="Utilisateur" data-source-line="2" data-uid="ent0002" id="entity_Utilisateur"><ellipse cx="58.5049" cy="591" fill="#F1F1F1" rx="8" ry="8" style="stroke:#181818;stroke-width:0.5;"/><path d="M58.5049,599 L58.5049,626 M45.5049,607 L71.5049,607 M58.5049,626 L45.5049,641 M58.5049,626 L71.5049,641" fill="none" style="stroke:#181818;stroke-width:0.5;"/><text fill="#000000" font-family="sans-serif" font-size="14" lengthAdjust="spacing" textLength="72.0098" x="22.5" y="655.4951">Utilisateur</text></g><!--entity Visiteur--><g class="entity" data-entity="Visiteur" data-source-line="3" data-uid="ent0003" id="entity_Visiteur"><ellipse cx="58.6909" cy="324" fill="#F1F1F1" rx="8" ry="8" style="stroke:#181818;stroke-width:0.5;"/><path d="M58.6909,332 L58.6909,359 M45.6909,340 L71.6909,340 M58.6909,359 L45.6909,374 M58.6909,359 L71.6909,374" fill="none" style="stroke:#181818;stroke-width:0.5;"/><text fill="#000000" font-family="sans-serif" font-size="14" lengthAdjust="spacing" textLength="53.3818" x="32" y="388.4951">Visiteur</text></g><!--entity Administrateur--><g class="entity" data-entity="Administrateur" data-source-line="4" data-uid="ent0004" id="entity_Administrateur"><ellipse cx="58.3018" cy="58" fill="#F1F1F1" rx="8" ry="8" style="stroke:#181818;stroke-width:0.5;"/><path d="M58.3018,66 L58.3018,93 M45.3018,74 L71.3018,74 M58.3018,93 L45.3018,108 M58.3018,93 L71.3018,108" fill="none" style="stroke:#181818;stroke-width:0.5;"/><text fill="#000000" font-family="sans-serif" font-size="14" lengthAdjust="spacing" textLength="104.6035" x="6" y="122.4951">Administrateur</text></g><!--entity Se connecter--><g class="entity" data-entity="Se connecter" data-source-line="6" data-uid="ent0005" id="entity_Se connecter"><ellipse cx="320.9965" cy="219.2993" fill="#F1F1F1" rx="64.4965" ry="15.2993" style="stroke:#181818;stroke-width:0.5;"/><text fill="#000000" font-family="sans-serif" font-size="14" lengthAdjust="spacing" textLength="92.1279" x="274.9325" y="223.9477">Se connecter</text></g><!--entity S'inscrire--><g class="entity" data-entity="S'inscrire" data-source-line="7" data-uid="ent0007" id="entity_S'inscrire"><ellipse cx="321.1111" cy="284.5236" fill="#F1F1F1" rx="48.6111" ry="14.5236" style="stroke:#181818;stroke-width:0.5;"/><text fill="#000000" font-family="sans-serif" font-size="14" lengthAdjust="spacing" textLength="64.5039" x="288.8592" y="289.1721">S'inscrire</text></g><!--entity Rechercher un livre--><g class="entity" data-entity="Rechercher un livre" data-source-line="8" data-uid="ent0009" id="entity_Rechercher un livre"><ellipse cx="320.8294" cy="353.4659" fill="#F1F1F1" rx="82.8294" ry="18.9659" style="stroke:#181818;stroke-width:0.5;"/><text fill="#000000" font-family="sans-serif" font-size="14" lengthAdjust="spacing" textLength="137.2998" x="252.1795" y="358.1143">Rechercher un livre</text></g><!--entity Voir d?tails d'un livre--><g class="entity" data-entity="Voir d&#233;tails d'un livre" data-source-line="9" data-uid="ent0011" id="entity_Voir d&#233;tails d'un livre"><ellipse cx="320.7791" cy="427.4558" fill="#F1F1F1" rx="87.7791" ry="19.9558" style="stroke:#181818;stroke-width:0.5;"/><text fill="#000000" font-family="sans-serif" font-size="14" lengthAdjust="spacing" textLength="148.6953" x="246.4315" y="432.1043">Voir d&#233;tails d'un livre</text></g><!--entity Changer mot de passe--><g class="entity" data-entity="Changer mot de passe" data-source-line="12" data-uid="ent0015" id="entity_Changer mot de passe"><ellipse cx="321.1389" cy="584.3278" fill="#F1F1F1" rx="92.1389" ry="20.8278" style="stroke:#181818;stroke-width:0.5;"/><text fill="#000000" font-family="sans-serif" font-size="14" lengthAdjust="spacing" textLength="158.5664" x="241.8557" y="588.9762">Changer mot de passe</text></g><!--entity Se d?connecter--><g class="entity" data-entity="Se d&#233;connecter" data-source-line="13" data-uid="ent0017" id="entity_Se d&#233;connecter"><ellipse cx="320.7971" cy="657.6594" fill="#F1F1F1" rx="71.2971" ry="16.6594" style="stroke:#181818;stroke-width:0.5;"/><text fill="#000000" font-family="sans-serif" font-size="14" lengthAdjust="spacing" textLength="109.6279" x="265.9832" y="662.3079">Se d&#233;connecter</text></g><!--entity changer mot de passe tous Utilisateurs--><g class="entity" data-entity="changer mot de passe tous Utilisateurs" data-source-line="26" data-uid="ent0030" id="entity_changer mot de passe tous Utilisateurs"><ellipse cx="320.8679" cy="37.6736" fill="#F1F1F1" rx="146.3679" ry="31.6736" style="stroke:#181818;stroke-width:0.5;"/><text fill="#000000" font-family="sans-serif" font-size="14" lengthAdjust="spacing" textLength="274.9141" x="183.4109" y="42.322">changer mot de passe tous Utilisateurs</text></g><!--entity changer nom de profile tous Utilisateurs--><g class="entity" data-entity="changer nom de profile tous Utilisateurs" data-source-line="27" data-uid="ent0032" id="entity_changer nom de profile tous Utilisateurs"><ellipse cx="320.8452" cy="136.369" fill="#F1F1F1" rx="149.8452" ry="32.369" style="stroke:#181818;stroke-width:0.5;"/><text fill="#000000" font-family="sans-serif" font-size="14" lengthAdjust="spacing" textLength="282.1602" x="179.7651" y="141.0175">changer nom de profile tous Utilisateurs</text></g><!--link Visiteur to Se connecter--><g class="link" data-entity-1="Visiteur" data-entity-2="Se connecter" data-source-line="6" data-uid="lnk6" id="link_Visiteur_Se connecter"><path d="M85.23,322.81 C106.05,299.98 137.36,269.89 171,252.5 C198.77,238.15 226.6769,230.9673 255.0769,226.3773" fill="none" id="Visiteur-to-Se connecter" style="stroke:#181818;stroke-width:1;"/><polygon fill="#181818" points="261,225.42,251.4771,222.9072,256.0641,226.2177,252.7535,230.8047,261,225.42" style="stroke:#181818;stroke-width:1;"/></g><!--link Visiteur to S'inscrire--><g class="link" data-entity-1="Visiteur" data-entity-2="S'inscrire" data-source-line="7" data-uid="lnk8" id="link_Visiteur_S'inscrire"><path d="M85.39,344.02 C107.83,336.01 141.29,324.6 171,316.5 C207.25,306.62 243.2401,299.0043 273.3501,293.1543" fill="none" id="Visiteur-to-S'inscrire" style="stroke:#181818;stroke-width:1;"/><polygon fill="#181818" points="279.24,292.01,269.6423,289.7999,274.3318,292.9636,271.1681,297.6531,279.24,292.01" style="stroke:#181818;stroke-width:1;"/></g><!--link Visiteur to Rechercher un livre--><g class="link" data-entity-1="Visiteur" data-entity-2="Rechercher un livre" data-source-line="8" data-uid="lnk10" id="link_Visiteur_Rechercher un livre"><path d="M85.43,353.5 C120.69,353.5 179.39,353.5 231.92,353.5" fill="none" id="Visiteur-to-Rechercher un livre" style="stroke:#181818;stroke-width:1;"/><polygon fill="#181818" points="237.92,353.5,228.92,349.5,232.92,353.5,228.92,357.5,237.92,353.5" style="stroke:#181818;stroke-width:1;"/></g><!--link Visiteur to Voir d?tails d'un livre--><g class="link" data-entity-1="Visiteur" data-entity-2="Voir d&#233;tails d'un livre" data-source-line="9" data-uid="lnk12" id="link_Visiteur_Voir d&#233;tails d'un livre"><path d="M85.05,362.25 C107.56,369.84 141.29,380.93 171,389.5 C199.98,397.87 226.5874,404.8018 253.7674,411.5618" fill="none" id="Visiteur-to-Voir d&#233;tails d'un livre" style="stroke:#181818;stroke-width:1;"/><polygon fill="#181818" points="259.59,413.01,251.8215,406.956,254.7378,411.8032,249.8906,414.7195,259.59,413.01" style="stroke:#181818;stroke-width:1;"/></g><!--link Utilisateur to Voir d?tails d'un livre--><g class="link" data-entity-1="Utilisateur" data-entity-2="Voir d&#233;tails d'un livre" data-source-line="10" data-uid="lnk13" id="link_Utilisateur_Voir d&#233;tails d'un livre"><path d="M82.11,582.35 C102.06,551.62 133.71,509.26 171,482.5 C197.21,463.69 224.8507,452.3394 253.3607,443.6494" fill="none" id="Utilisateur-to-Voir d&#233;tails d'un livre" style="stroke:#181818;stroke-width:1;"/><polygon fill="#181818" points="259.1,441.9,249.3248,440.6979,254.3172,443.3578,251.6573,448.3503,259.1,441.9" style="stroke:#181818;stroke-width:1;"/></g><!--link Utilisateur to Rechercher un livre--><g class="link" data-entity-1="Utilisateur" data-entity-2="Rechercher un livre" data-source-line="11" data-uid="lnk14" id="link_Utilisateur_Rechercher un livre"><path d="M67.28,582.23 C79.84,530.48 109.67,439.01 171,389.5 C190.98,373.37 211.1915,365.4913 235.9515,360.4313" fill="none" id="Utilisateur-to-Rechercher un livre" style="stroke:#181818;stroke-width:1;"/><polygon fill="#181818" points="241.83,359.23,232.2114,357.113,236.9312,360.2311,233.8131,364.951,241.83,359.23" style="stroke:#181818;stroke-width:1;"/></g><!--link Utilisateur to Changer mot de passe--><g class="link" data-entity-1="Utilisateur" data-entity-2="Changer mot de passe" data-source-line="12" data-uid="lnk16" id="link_Utilisateur_Changer mot de passe"><path d="M94.63,615.64 C132.2,610.45 187.0364,602.8705 236.0064,596.1105" fill="none" id="Utilisateur-to-Changer mot de passe" style="stroke:#181818;stroke-width:1;"/><polygon fill="#181818" points="241.95,595.29,232.4876,592.5583,236.997,595.9737,233.5815,600.4831,241.95,595.29" style="stroke:#181818;stroke-width:1;"/></g><!--link Utilisateur to Se d?connecter--><g class="link" data-entity-1="Utilisateur" data-entity-2="Se d&#233;connecter" data-source-line="13" data-uid="lnk18" id="link_Utilisateur_Se d&#233;connecter"><path d="M94.63,625.49 C136.92,631.5 202.6797,640.836 253.8497,648.106" fill="none" id="Utilisateur-to-Se d&#233;connecter" style="stroke:#181818;stroke-width:1;"/><polygon fill="#181818" points="259.79,648.95,251.4421,643.7238,254.8397,648.2467,250.3168,651.6443,259.79,648.95" style="stroke:#181818;stroke-width:1;"/></g><!--link Utilisateur to Basculer visibilit? d'un livre--><g class="link" data-entity-1="Utilisateur" data-entity-2="Basculer visibilit&#233; d'un livre" data-source-line="16" data-uid="lnk21" id="link_Utilisateur_Basculer visibilit&#233; d'un livre"><path d="M94.6,645.37 C116.05,659.91 144.39,678.01 171,691.5 C199.72,706.06 227.375,717.2693 255.185,727.4393" fill="none" id="Utilisateur-to-Basculer visibilit&#233; d'un livre" style="stroke:#181818;stroke-width:1;"/><polygon fill="#181818" points="260.82,729.5,253.7413,722.6523,256.1241,727.7827,250.9937,730.1656,260.82,729.5" style="stroke:#181818;stroke-width:1;"/></g><!--link Utilisateur to Ajouter un livre--><g class="link" data-entity-1="Utilisateur" data-entity-2="Ajouter un livre" data-source-line="17" data-uid="lnk23" id="link_Utilisateur_Ajouter un livre"><path d="M74.19,658.73 C91.36,698.18 123.61,758.47 171,791.5 C194.84,808.11 219.6172,815.7703 246.9572,820.2003" fill="none" id="Utilisateur-to-Ajouter un livre" style="stroke:#181818;stroke-width:1;"/><polygon fill="#181818" points="252.88,821.16,244.6357,815.772,247.9444,820.3603,243.3561,823.669,252.88,821.16" style="stroke:#181818;stroke-width:1;"/></g><!--link Utilisateur to Supprimer un livre--><g class="link" data-entity-1="Utilisateur" data-entity-2="Supprimer un livre" data-source-line="18" data-uid="lnk25" id="link_Utilisateur_Supprimer un livre"><path d="M66.58,658.72 C78.49,711.97 107.74,807.75 171,859.5 C191.49,876.27 212.6805,884.294 238.1205,889.244" fill="none" id="Utilisateur-to-Supprimer un livre" style="stroke:#181818;stroke-width:1;"/><polygon fill="#181818" points="244.01,890.39,235.9397,884.7447,239.102,889.435,234.4117,892.5974,244.01,890.39" style="stroke:#181818;stroke-width:1;"/></g><!--link Visiteur to Voir--><g class="link" data-entity-1="Visiteur" data-entity-2="Voir" data-source-line="22" data-uid="lnk28" id="link_Visiteur_Voir"><path d="M85.17,386.32 C105.96,410.92 137.24,443.78 171,464.5 C212.66,490.07 263.265,502.7008 293.315,508.6708" fill="none" id="Visiteur-to-Voir" style="stroke:#181818;stroke-width:1;"/><polygon fill="#181818" points="299.2,509.84,291.152,504.1629,294.2958,508.8657,289.5931,512.0096,299.2,509.84" style="stroke:#181818;stroke-width:1;"/></g><!--link Utilisateur to Voir--><g class="link" data-entity-1="Utilisateur" data-entity-2="Voir" data-source-line="23" data-uid="lnk29" id="link_Utilisateur_Voir"><path d="M94.64,591.76 C115.64,575.93 143.52,557.18 171,545.5 C214.1,527.18 262.8683,519.5771 292.5383,516.2071" fill="none" id="Utilisateur-to-Voir" style="stroke:#181818;stroke-width:1;"/><polygon fill="#181818" points="298.5,515.53,289.1061,512.5713,293.5319,516.0943,290.0089,520.5202,298.5,515.53" style="stroke:#181818;stroke-width:1;"/></g><!--link Administrateur to changer mot de passe tous Utilisateurs--><g class="link" data-entity-1="Administrateur" data-entity-2="changer mot de passe tous Utilisateurs" data-source-line="26" data-uid="lnk31" id="link_Administrateur_changer mot de passe tous Utilisateurs"><path d="M111.28,77.56 C139.91,72.07 170.7277,66.1518 205.3477,59.5018" fill="none" id="Administrateur-to-changer mot de passe tous Utilisateurs" style="stroke:#181818;stroke-width:1;"/><polygon fill="#181818" points="211.24,58.37,201.647,56.1395,206.3298,59.3132,203.1561,63.9959,211.24,58.37" style="stroke:#181818;stroke-width:1;"/></g><!--link Administrateur to changer nom de profile tous Utilisateurs--><g class="link" data-entity-1="Administrateur" data-entity-2="changer nom de profile tous Utilisateurs" data-source-line="27" data-uid="lnk33" id="link_Administrateur_changer nom de profile tous Utilisateurs"><path d="M111.28,97.24 C138.8,102.42 167.8832,107.8919 201.3032,114.1719" fill="none" id="Administrateur-to-changer nom de profile tous Utilisateurs" style="stroke:#181818;stroke-width:1;"/><polygon fill="#181818" points="207.2,115.28,199.0935,109.6867,202.286,114.3566,197.6161,117.5491,207.2,115.28" style="stroke:#181818;stroke-width:1;"/></g><!--SRC=[bL91Ri903Bpd5HONoe4lL4hvGL6vBnj3N6rs8zlBfUg3U0SVgvEq8f20rCCUl3Fss6C7F2Xe0gPZhL0HerTAiN1U4yE7KY1nYfb_VtOar8Tb7vPLGv54UU0KVp2irw_miaNmAKOhYRownvOKnRC9tYFlw6laxa6E4EWqfUmICLINipeA0jNooXjr_6_ghF24jQbTF1gbIUONGkj4vcWskwcEnYywQoqr82msAOJ1Q6YHfIFPnmA-fdNUdFWSJEza3kmDrClv-HZbPyhwV8PjRbkcveRq_QZ3NinbPOHyBTGrErtAWmNqrMzlPG3zZ9bsZbd6foUhfxanDNqkfmE5kUmV]--></g></svg>