<?xml version="1.0" encoding="utf-8"?>
<!-- Generated by Mocodo 4.3.2 -->
<svg width="365" height="356" viewBox="0 0 365 356" xmlns="http://www.w3.org/2000/svg">
<rect x="0" y="0" width="365" height="356" fill="#ffffbf" stroke="none" stroke-width="0"/>

<!-- Association AVOIR -->
<g>
	<line x1="197" y1="51" x2="77" y2="51" stroke="#66bd63" stroke-width="2"/>
	<line x1="77" y1="186" x2="77" y2="51" stroke="#66bd63" stroke-width="2"/>
	<g>
		<path d="M90 26 a14 14 90 0 1 14 14 V51 h-54 V40 a14 14 90 0 1 14 -14" fill="#a6d96a" stroke="#a6d96a" stroke-width="0"/>
		<path d="M104 51 v11 a14 14 90 0 1 -14 14 H64 a14 14 90 0 1 -14 -14 V51 H54" fill="#d9ef8b" stroke="#d9ef8b" stroke-width="0"/>
		<rect x="50" y="26" width="54" height="50" fill="none" rx="14" stroke="#66bd63" stroke-width="2"/>
		<line x1="50" y1="51" x2="104" y2="51" stroke="#66bd63" stroke-width="1"/>
		<text x="57" y="43.75" fill="#000000" font-family="Verdana" font-size="12">AVOIR</text>
	</g>
	<text x="123" y="68" fill="#d73027" font-family="Verdana" font-size="12">0,N</text>
	<text x="82" y="110" fill="#d73027" font-family="Verdana" font-size="12">1,1</text>
</g>

<!-- Association POSSEDER -->
<g>
	<line x1="77" y1="186" x2="77" y2="313" stroke="#66bd63" stroke-width="2"/>
	<line x1="197" y1="313" x2="77" y2="313" stroke="#66bd63" stroke-width="2"/>
	<g>
		<path d="M104 288 a14 14 90 0 1 14 14 V313 h-82 V302 a14 14 90 0 1 14 -14" fill="#a6d96a" stroke="#a6d96a" stroke-width="0"/>
		<path d="M118 313 v11 a14 14 90 0 1 -14 14 H50 a14 14 90 0 1 -14 -14 V313 H82" fill="#d9ef8b" stroke="#d9ef8b" stroke-width="0"/>
		<rect x="36" y="288" width="82" height="50" fill="none" rx="14" stroke="#66bd63" stroke-width="2"/>
		<line x1="36" y1="313" x2="118" y2="313" stroke="#66bd63" stroke-width="1"/>
		<text x="44" y="305.75" fill="#000000" font-family="Verdana" font-size="12">POSSEDER</text>
	</g>
	<text x="82" y="271" fill="#d73027" font-family="Verdana" font-size="12">1,N</text>
	<text x="124" y="330" fill="#d73027" font-family="Verdana" font-size="12">1,1</text>
</g>

<!-- Association CONTENIR -->
<g>
	<line x1="197" y1="313" x2="316" y2="313" stroke="#66bd63" stroke-width="2"/>
	<line x1="316" y1="186" x2="316" y2="313" stroke="#66bd63" stroke-width="2"/>
	<g>
		<path d="M342 279 a14 14 90 0 1 14 14 V304 h-80 V293 a14 14 90 0 1 14 -14" fill="#a6d96a" stroke="#a6d96a" stroke-width="0"/>
		<path d="M356 304 v29 a14 14 90 0 1 -14 14 H290 a14 14 90 0 1 -14 -14 V304 H80" fill="#d9ef8b" stroke="#d9ef8b" stroke-width="0"/>
		<rect x="276" y="279" width="80" height="68" fill="none" rx="14" stroke="#66bd63" stroke-width="2"/>
		<line x1="276" y1="304" x2="356" y2="304" stroke="#66bd63" stroke-width="1"/>
		<text x="284" y="296.75" fill="#000000" font-family="Verdana" font-size="12">CONTENIR</text>
		<text x="283" y="321.8" fill="#000000" font-family="Verdana" font-size="12">date_ajout</text>
		<text x="283" y="338.8" fill="#000000" font-family="Verdana" font-size="12">is_visible</text>
	</g>
	<text x="249" y="330" fill="#d73027" font-family="Verdana" font-size="12">0,N</text>
	<text x="321" y="228" fill="#d73027" font-family="Verdana" font-size="12">1,1</text>
</g>

<!-- Entity ROLE -->
<g>
	<g>
		<rect x="150" y="9" width="94" height="25" fill="#fdae61" stroke="none" stroke-width="0" opacity="1"/>
		<rect x="150" y="34" width="94" height="59" fill="#fee08b" stroke="none" stroke-width="0" opacity="1"/>
		<rect x="150" y="9" width="94" height="84" fill="none" stroke="#f46d43" stroke-width="2" opacity="1"/>
		<line x1="150" y1="34" x2="244" y2="34" stroke="#f46d43" stroke-width="1"/>
	</g>
	<text x="181" y="26.75" fill="#000000" font-family="Verdana" font-size="12">ROLE</text>
	<text x="155" y="51.8" fill="#000000" font-family="Verdana" font-size="12">id</text>
	<line x1="155" y1="54" x2="167" y2="54" stroke="#000000" stroke-width="1"/>
	<text x="155" y="68.8" fill="#000000" font-family="Verdana" font-size="12">nom</text>
	<text x="155" y="85.8" fill="#000000" font-family="Verdana" font-size="12">date_creation</text>
</g>

<!-- Entity UTILISATEUR -->
<g>
	<g>
		<rect x="9" y="118" width="136" height="25" fill="#fdae61" stroke="none" stroke-width="0" opacity="1"/>
		<rect x="9" y="143" width="136" height="111" fill="#fee08b" stroke="none" stroke-width="0" opacity="1"/>
		<rect x="9" y="118" width="136" height="136" fill="none" stroke="#f46d43" stroke-width="2" opacity="1"/>
		<line x1="9" y1="143" x2="145" y2="143" stroke="#f46d43" stroke-width="1"/>
	</g>
	<text x="36" y="135.75" fill="#000000" font-family="Verdana" font-size="12">UTILISATEUR</text>
	<text x="14" y="160.8" fill="#000000" font-family="Verdana" font-size="12">id</text>
	<line x1="14" y1="163" x2="26" y2="163" stroke="#000000" stroke-width="1"/>
	<text x="14" y="177.8" fill="#000000" font-family="Verdana" font-size="12">email</text>
	<text x="14" y="194.8" fill="#000000" font-family="Verdana" font-size="12">mot_de_passe_hash</text>
	<text x="14" y="211.8" fill="#000000" font-family="Verdana" font-size="12">nom_profil</text>
	<text x="14" y="228.8" fill="#000000" font-family="Verdana" font-size="12">date_creation</text>
	<text x="14" y="245.8" fill="#000000" font-family="Verdana" font-size="12">role_id</text>
</g>

<!-- Entity LIVRE -->
<g>
	<g>
		<rect x="292" y="161" width="48" height="25" fill="#fdae61" stroke="none" stroke-width="0" opacity="1"/>
		<rect x="292" y="186" width="48" height="25" fill="#fee08b" stroke="none" stroke-width="0" opacity="1"/>
		<rect x="292" y="161" width="48" height="50" fill="none" stroke="#f46d43" stroke-width="2" opacity="1"/>
		<line x1="292" y1="186" x2="340" y2="186" stroke="#f46d43" stroke-width="1"/>
	</g>
	<text x="298" y="178.75" fill="#000000" font-family="Verdana" font-size="12">LIVRE</text>
	<text x="297" y="203.8" fill="#000000" font-family="Verdana" font-size="12">isbn</text>
	<line x1="297" y1="206" x2="323" y2="206" stroke="#000000" stroke-width="1"/>
</g>

<!-- Entity COLLECTION -->
<g>
	<g>
		<rect x="150" y="279" width="94" height="25" fill="#fdae61" stroke="none" stroke-width="0" opacity="1"/>
		<rect x="150" y="304" width="94" height="43" fill="#fee08b" stroke="none" stroke-width="0" opacity="1"/>
		<rect x="150" y="279" width="94" height="68" fill="none" stroke="#f46d43" stroke-width="2" opacity="1"/>
		<line x1="150" y1="304" x2="244" y2="304" stroke="#f46d43" stroke-width="1"/>
	</g>
	<text x="158" y="296.75" fill="#000000" font-family="Verdana" font-size="12">COLLECTION</text>
	<text x="155" y="321.8" fill="#000000" font-family="Verdana" font-size="12">id</text>
	<line x1="155" y1="324" x2="167" y2="324" stroke="#000000" stroke-width="1"/>
	<text x="155" y="338.8" fill="#000000" font-family="Verdana" font-size="12">date_creation</text>
</g>
</svg>