<?xml version="1.0" encoding="utf-8"?>
<!-- Generated by Mocodo 4.3.2 -->
<svg width="400" height="304" viewBox="0 0 400 304" xmlns="http://www.w3.org/2000/svg">
<rect x="0" y="0" width="400" height="304" fill="#f7f7f7" stroke="none" stroke-width="0"/>

<!-- Association CONTENIR -->
<g>
	<line x1="56" y1="43" x2="197" y2="43" stroke="#5aae61" stroke-width="2"/>
	<line x1="344" y1="43" x2="197" y2="43" stroke="#5aae61" stroke-width="2"/>
	<g>
		<path d="M237 9 a14 14 90 0 1 14 14 V34 h-108 V23 a14 14 90 0 1 14 -14" fill="#a6dba0" stroke="#a6dba0" stroke-width="0"/>
		<path d="M251 34 v29 a14 14 90 0 1 -14 14 H157 a14 14 90 0 1 -14 -14 V34 H108" fill="#d9f0d3" stroke="#d9f0d3" stroke-width="0"/>
		<rect x="143" y="9" width="108" height="68" fill="none" rx="14" stroke="#5aae61" stroke-width="2"/>
		<line x1="143" y1="34" x2="251" y2="34" stroke="#5aae61" stroke-width="1"/>
		<text x="165" y="26.75" fill="#000000" font-family="Verdana" font-size="12">CONTENIR</text>
		<text x="150" y="51.8" fill="#000000" font-family="Verdana" font-size="12">date_ajout</text>
		<text x="150" y="68.8" fill="#000000" font-family="Verdana" font-size="12">statut_visibilite</text>
	</g>
	<text x="108" y="60" fill="#762a83" font-family="Verdana" font-size="12">0,N</text>
	<text x="294" y="60" fill="#762a83" font-family="Verdana" font-size="12">1,1</text>
</g>

<!-- Association POSSEDER -->
<g>
	<line x1="197" y1="161" x2="56" y2="161" stroke="#5aae61" stroke-width="2"/>
	<line x1="56" y1="43" x2="56" y2="161" stroke="#5aae61" stroke-width="2"/>
	<g>
		<path d="M83 136 a14 14 90 0 1 14 14 V161 h-82 V150 a14 14 90 0 1 14 -14" fill="#a6dba0" stroke="#a6dba0" stroke-width="0"/>
		<path d="M97 161 v11 a14 14 90 0 1 -14 14 H29 a14 14 90 0 1 -14 -14 V161 H82" fill="#d9f0d3" stroke="#d9f0d3" stroke-width="0"/>
		<rect x="15" y="136" width="82" height="50" fill="none" rx="14" stroke="#5aae61" stroke-width="2"/>
		<line x1="15" y1="161" x2="97" y2="161" stroke="#5aae61" stroke-width="1"/>
		<text x="23" y="153.75" fill="#000000" font-family="Verdana" font-size="12">POSSEDER</text>
	</g>
	<text x="103" y="178" fill="#762a83" font-family="Verdana" font-size="12">1,1</text>
	<text x="61" y="94" fill="#762a83" font-family="Verdana" font-size="12">1,1</text>
</g>

<!-- Association AVOIR_ROLE -->
<g>
	<line x1="197" y1="161" x2="344" y2="161" stroke="#5aae61" stroke-width="2"/>
	<line x1="344" y1="253" x2="344" y2="161" stroke="#5aae61" stroke-width="2"/>
	<g>
		<path d="M377 136 a14 14 90 0 1 14 14 V161 h-94 V150 a14 14 90 0 1 14 -14" fill="#a6dba0" stroke="#a6dba0" stroke-width="0"/>
		<path d="M391 161 v11 a14 14 90 0 1 -14 14 H311 a14 14 90 0 1 -14 -14 V161 H94" fill="#d9f0d3" stroke="#d9f0d3" stroke-width="0"/>
		<rect x="297" y="136" width="94" height="50" fill="none" rx="14" stroke="#5aae61" stroke-width="2"/>
		<line x1="297" y1="161" x2="391" y2="161" stroke="#5aae61" stroke-width="1"/>
		<text x="304" y="153.75" fill="#000000" font-family="Verdana" font-size="12">AVOIR_ROLE</text>
	</g>
	<text x="270" y="178" fill="#762a83" font-family="Verdana" font-size="12">1,1</text>
	<text x="349" y="203" fill="#762a83" font-family="Verdana" font-size="12">1,N</text>
</g>

<!-- Entity COLLECTION -->
<g>
	<g>
		<rect x="9" y="9" width="94" height="25" fill="#c2a5cf" stroke="none" stroke-width="0" opacity="1"/>
		<rect x="9" y="34" width="94" height="43" fill="#e7d4e8" stroke="none" stroke-width="0" opacity="1"/>
		<rect x="9" y="9" width="94" height="68" fill="none" stroke="#9970ab" stroke-width="2" opacity="1"/>
		<line x1="9" y1="34" x2="103" y2="34" stroke="#9970ab" stroke-width="1"/>
	</g>
	<text x="17" y="26.75" fill="#000000" font-family="Verdana" font-size="12">COLLECTION</text>
	<text x="14" y="51.8" fill="#000000" font-family="Verdana" font-size="12">id</text>
	<line x1="14" y1="54" x2="26" y2="54" stroke="#000000" stroke-width="1"/>
	<text x="14" y="68.8" fill="#000000" font-family="Verdana" font-size="12">date_creation</text>
</g>

<!-- Entity LIVRE -->
<g>
	<g>
		<rect x="320" y="18" width="48" height="25" fill="#c2a5cf" stroke="none" stroke-width="0" opacity="1"/>
		<rect x="320" y="43" width="48" height="25" fill="#e7d4e8" stroke="none" stroke-width="0" opacity="1"/>
		<rect x="320" y="18" width="48" height="50" fill="none" stroke="#9970ab" stroke-width="2" opacity="1"/>
		<line x1="320" y1="43" x2="368" y2="43" stroke="#9970ab" stroke-width="1"/>
	</g>
	<text x="326" y="35.75" fill="#000000" font-family="Verdana" font-size="12">LIVRE</text>
	<text x="325" y="60.8" fill="#000000" font-family="Verdana" font-size="12">isbn</text>
	<line x1="325" y1="63" x2="351" y2="63" stroke="#000000" stroke-width="1"/>
</g>

<!-- Entity UTILISATEUR -->
<g>
	<g>
		<rect x="129" y="102" width="136" height="25" fill="#c2a5cf" stroke="none" stroke-width="0" opacity="1"/>
		<rect x="129" y="127" width="136" height="93" fill="#e7d4e8" stroke="none" stroke-width="0" opacity="1"/>
		<rect x="129" y="102" width="136" height="118" fill="none" stroke="#9970ab" stroke-width="2" opacity="1"/>
		<line x1="129" y1="127" x2="265" y2="127" stroke="#9970ab" stroke-width="1"/>
	</g>
	<text x="156" y="119.75" fill="#000000" font-family="Verdana" font-size="12">UTILISATEUR</text>
	<text x="134" y="144.8" fill="#000000" font-family="Verdana" font-size="12">id</text>
	<line x1="134" y1="147" x2="146" y2="147" stroke="#000000" stroke-width="1"/>
	<text x="134" y="161.8" fill="#000000" font-family="Verdana" font-size="12">email</text>
	<text x="134" y="178.8" fill="#000000" font-family="Verdana" font-size="12">mot_de_passe_hash</text>
	<text x="134" y="195.8" fill="#000000" font-family="Verdana" font-size="12">nom_profil</text>
	<text x="134" y="212.8" fill="#000000" font-family="Verdana" font-size="12">date_creation</text>
</g>

<!-- Entity ROLE -->
<g>
	<g>
		<rect x="297" y="211" width="94" height="25" fill="#c2a5cf" stroke="none" stroke-width="0" opacity="1"/>
		<rect x="297" y="236" width="94" height="59" fill="#e7d4e8" stroke="none" stroke-width="0" opacity="1"/>
		<rect x="297" y="211" width="94" height="84" fill="none" stroke="#9970ab" stroke-width="2" opacity="1"/>
		<line x1="297" y1="236" x2="391" y2="236" stroke="#9970ab" stroke-width="1"/>
	</g>
	<text x="328" y="228.75" fill="#000000" font-family="Verdana" font-size="12">ROLE</text>
	<text x="302" y="253.8" fill="#000000" font-family="Verdana" font-size="12">id</text>
	<line x1="302" y1="256" x2="314" y2="256" stroke="#000000" stroke-width="1"/>
	<text x="302" y="270.8" fill="#000000" font-family="Verdana" font-size="12">nom</text>
	<text x="302" y="287.8" fill="#000000" font-family="Verdana" font-size="12">date_creation</text>
</g>
</svg>